<?xml version="1.0" standalone="no"?>
<!DOCTYPE svg PUBLIC "-//W3C//DTD SVG 20010904//EN"
 "http://www.w3.org/TR/2001/REC-SVG-20010904/DTD/svg10.dtd">
<svg version="1.0" xmlns="http://www.w3.org/2000/svg"
 width="720.000000pt" height="720.000000pt" viewBox="0 0 720.000000 720.000000"
 preserveAspectRatio="xMidYMid meet">
<metadata>
Created by potrace 1.14, written by Peter Selinger 2001-2017
</metadata>
<g transform="translate(0.000000,720.000000) scale(0.100000,-0.100000)"
fill="#000000" stroke="none">
<path d="M1327 6564 c-3 -3 -79 -5 -170 -5 -164 1 -164 1 -200 -27 -19 -15
-36 -34 -38 -42 -6 -36 -8 -5807 -2 -5820 3 -8 5 -19 4 -24 -3 -13 31 -47 59
-59 14 -5 48 -11 75 -11 48 -2 50 -3 51 -31 2 -38 12 -83 27 -113 25 -51 35
-52 485 -52 261 0 430 4 449 10 16 6 37 24 46 39 16 27 17 190 17 2456 l0
2426 708 -4 c716 -4 796 -8 791 -41 -1 -6 1 -18 4 -26 30 -76 31 -124 34
-1661 l3 -1547 27 -26 c14 -14 33 -27 42 -27 9 -1 36 -2 61 -4 25 -1 50 -3 57
-4 8 -1 10 -20 8 -58 -3 -59 10 -94 44 -120 12 -9 131 -12 477 -12 l461 0 32
28 31 28 -3 1649 c-1 907 -6 1667 -10 1689 -13 68 -15 80 -17 80 -1 0 -3 11
-5 25 -1 14 -5 36 -8 50 -3 14 -8 34 -10 45 -13 55 -54 169 -88 244 -70 151
-139 241 -350 451 -107 107 -202 200 -210 206 -8 6 -39 27 -69 47 -30 20 -61
42 -67 47 -7 6 -13 7 -13 3 0 -4 -4 -3 -8 2 -9 14 -101 57 -172 81 -30 11 -56
22 -58 26 -2 4 -10 4 -18 1 -8 -3 -14 0 -14 7 0 7 -7 10 -15 7 -8 -4 -17 -2
-20 3 -3 4 -13 7 -23 5 -9 -1 -22 2 -29 7 -7 5 -17 7 -22 4 -5 -4 -13 -1 -16
4 -4 6 -17 10 -28 8 -12 -1 -26 0 -32 4 -25 15 -246 27 -520 28 -165 1 -304 1
-310 1 -5 0 -328 0 -717 -1 -389 -1 -711 1 -716 4 -5 3 -12 3 -15 0z"/>
<path d="M5129 6553 c-36 -12 -48 -21 -57 -47 -9 -24 -12 -580 -12 -2233 0
-2403 2 -2322 -56 -2420 -14 -24 -22 -43 -19 -43 4 0 -10 -17 -29 -38 -20 -20
-36 -40 -36 -43 0 -11 -97 -59 -104 -52 -3 4 -6 2 -6 -4 0 -5 -6 -10 -12 -11
-56 -8 -88 -15 -88 -21 0 -7 -113 -6 -133 2 -7 3 -32 2 -55 -3 -23 -4 -42 -4
-42 1 0 4 -12 4 -27 0 -16 -4 -39 -6 -53 -4 -14 1 -41 3 -60 2 -19 0 -44 1
-55 1 -11 1 -26 1 -32 1 -30 -2 -46 -2 -99 -1 -31 1 -58 -1 -61 -4 -3 -3 -13
-1 -22 4 -10 5 -23 5 -31 0 -8 -5 -21 -5 -31 1 -12 6 -20 5 -24 -1 -4 -6 -10
-8 -14 -6 -7 5 -37 6 -138 7 -29 0 -61 0 -70 1 -10 0 -34 0 -53 -1 -19 -1 -43
-1 -52 -1 -10 0 -33 0 -50 -1 -75 -2 -88 3 -89 36 0 16 -1 754 -2 1638 -2
1596 -2 1609 -22 1622 -11 8 -24 18 -30 22 -14 11 -39 10 -47 -2 -5 -7 -8 -6
-8 1 0 5 -19 9 -43 9 l-44 -1 0 66 c-1 71 -14 110 -38 110 -8 0 -15 4 -15 9 0
5 -201 9 -457 9 -494 0 -472 2 -501 -53 -14 -28 -15 -4437 -1 -4469 17 -36 67
-60 129 -61 l55 0 1 -51 c2 -53 30 -128 44 -119 5 3 10 -1 12 -7 6 -17 2308
-24 2468 -8 58 6 112 11 120 11 8 0 40 6 70 12 30 6 58 10 63 9 4 -1 7 2 7 6
0 5 10 8 23 7 12 -1 28 2 35 8 6 5 12 6 12 2 0 -4 7 -2 15 5 8 7 15 9 15 5 0
-4 7 -2 15 5 8 6 19 9 25 5 5 -3 10 -2 10 3 0 5 19 15 43 22 23 7 68 25 99 41
32 16 60 28 63 27 2 -2 10 4 17 13 7 9 29 25 47 35 38 21 64 39 93 67 10 9 18
14 18 11 0 -10 171 166 208 213 17 23 32 47 32 52 0 6 4 11 8 11 4 0 18 20 30
45 12 25 26 45 32 45 5 0 9 3 8 8 -1 4 8 30 21 57 35 74 39 84 65 162 13 39
22 74 18 77 -3 3 0 6 5 6 6 0 10 8 8 18 -1 9 2 22 7 28 5 7 8 16 7 20 -1 5 0
11 1 14 6 16 11 51 14 91 2 25 5 50 8 55 12 20 13 231 13 2425 l0 2286 -34 32
c-18 17 -37 29 -41 26 -5 -3 -11 -2 -14 3 -3 5 -26 8 -51 7 -51 -2 -59 10 -52
73 3 17 1 32 -3 32 -4 0 -10 13 -13 30 -12 58 -20 59 -480 59 -229 0 -420 2
-425 4 -4 3 -28 -2 -53 -10z"/>
</g>
</svg>
